<svg xmlns="http://www.w3.org/2000/svg" xmlns:xlink="http://www.w3.org/1999/xlink" viewBox="0,0,256,256" width="64px" height="64px" fill-rule="nonzero"><g fill="#ffffff" fill-rule="nonzero" stroke="none" stroke-width="1" stroke-linecap="butt" stroke-linejoin="miter" stroke-miterlimit="10" stroke-dasharray="" stroke-dashoffset="0" font-family="none" font-weight="none" font-size="none" text-anchor="none" style="mix-blend-mode: normal"><g transform="scale(4,4)"><path d="M28.30078,10.80078c-11.2,0 -20.40039,9.19961 -20.40039,20.59961c0,11.4 9.10039,20.59961 20.40039,20.59961c5.2,0 9.9,-1.99922 13.5,-5.19922l1.19922,1.19922l-1.09961,1.09961c-0.6,0.6 -0.6,1.60117 0,2.20117l9,9.09961c0.3,0.3 0.69961,0.5 1.09961,0.5c0.4,0 0.8,-0.1 1,-0.5l4,-4c0.5,-0.7 0.50039,-1.60117 -0.09961,-2.20117l-9,-9.09961c-0.3,-0.3 -0.69961,-0.40039 -1.09961,-0.40039c-0.4,0 -0.8,0.10039 -1,0.40039l-1,1.09961l-1.20117,-1.19922c3.2,-3.7 5.09961,-8.39961 5.09961,-13.59961c0,-11.4 -9.19844,-20.59961 -20.39844,-20.59961zM28.30078,13.90039c9.6,0 17.39844,7.89961 17.39844,17.59961c0,9.7 -7.79844,17.5 -17.39844,17.5c-9.6,0 -17.40039,-7.8 -17.40039,-17.5c0,-9.7 7.80039,-17.59961 17.40039,-17.59961zM28.40039,20.09961c-4.8,0 -8.99961,3 -10.59961,7.5c-0.3,0.7 0.09922,1.50117 0.69922,1.70117c0.1,0 0.3,0.09961 0.5,0.09961c0.5,0 1.00078,-0.40039 1.30078,-0.90039c1.2,-3.5 4.49961,-5.80078 8.09961,-5.80078c0.7,0 1.29883,-0.59883 1.29883,-1.29883c0,-0.7 -0.59883,-1.30078 -1.29883,-1.30078zM18.90039,32.5c-0.7,0 -1.30078,0.50078 -1.30078,1.30078v0.19922c0,0.7 0.50078,1.30078 1.30078,1.30078c0.7,0 1.29883,-0.60078 1.29883,-1.30078v-0.19922c0,-0.8 -0.49883,-1.30078 -1.29883,-1.30078zM46.90039,48.30078l6.90039,7l-1.90039,1.89844l-6.90039,-7z"></path></g></g></svg>